<svg width="68" height="68" viewBox="0 0 68 68" fill="none" xmlns="http://www.w3.org/2000/svg">
<path d="M5.10449 54.9287L1.80957 64H0.462891L4.25684 54.0469H5.125L5.10449 54.9287ZM7.86621 64L4.56445 54.9287L4.54395 54.0469H5.41211L9.21973 64H7.86621ZM7.69531 60.3154V61.3955H2.10352V60.3154H7.69531ZM12.2686 62.8584L14.292 56.6035H15.584L12.9248 64H12.0771L12.2686 62.8584ZM10.5801 56.6035L12.665 62.8926L12.8086 64H11.9609L9.28125 56.6035H10.5801ZM21.0527 62.7354V58.9277C21.0527 58.6361 20.9935 58.3831 20.875 58.1689C20.7611 57.9502 20.5879 57.7816 20.3555 57.6631C20.123 57.5446 19.8359 57.4854 19.4941 57.4854C19.1751 57.4854 18.8949 57.54 18.6533 57.6494C18.4163 57.7588 18.2295 57.9023 18.0928 58.0801C17.9606 58.2578 17.8945 58.4492 17.8945 58.6543H16.6299C16.6299 58.39 16.6982 58.1279 16.835 57.8682C16.9717 57.6084 17.1676 57.3737 17.4229 57.1641C17.6826 56.9499 17.9925 56.7812 18.3525 56.6582C18.7171 56.5306 19.1227 56.4668 19.5693 56.4668C20.1071 56.4668 20.5811 56.5579 20.9912 56.7402C21.4059 56.9225 21.7295 57.1982 21.9619 57.5674C22.1989 57.932 22.3174 58.39 22.3174 58.9414V62.3867C22.3174 62.6328 22.3379 62.8949 22.3789 63.1729C22.4245 63.4508 22.4906 63.6901 22.5771 63.8906V64H21.2578C21.194 63.8542 21.1439 63.6605 21.1074 63.4189C21.071 63.1729 21.0527 62.945 21.0527 62.7354ZM21.2715 59.5156L21.2852 60.4043H20.0068C19.6468 60.4043 19.3255 60.4339 19.043 60.4932C18.7604 60.5479 18.5234 60.6322 18.332 60.7461C18.1406 60.86 17.9948 61.0036 17.8945 61.1768C17.7943 61.3454 17.7441 61.5436 17.7441 61.7715C17.7441 62.0039 17.7965 62.2158 17.9014 62.4072C18.0062 62.5986 18.1634 62.7513 18.373 62.8652C18.5872 62.9746 18.8493 63.0293 19.1592 63.0293C19.5465 63.0293 19.8883 62.9473 20.1846 62.7832C20.4808 62.6191 20.7155 62.4186 20.8887 62.1816C21.0664 61.9447 21.1621 61.7145 21.1758 61.4912L21.7158 62.0996C21.6839 62.291 21.5973 62.5029 21.4561 62.7354C21.3148 62.9678 21.1257 63.1911 20.8887 63.4053C20.6562 63.6149 20.3783 63.7904 20.0547 63.9316C19.7357 64.0684 19.3757 64.1367 18.9746 64.1367C18.4733 64.1367 18.0335 64.0387 17.6553 63.8428C17.2816 63.6468 16.9899 63.3848 16.7803 63.0566C16.5752 62.724 16.4727 62.3525 16.4727 61.9424C16.4727 61.5459 16.5501 61.1973 16.7051 60.8965C16.86 60.5911 17.0833 60.3382 17.375 60.1377C17.6667 59.9326 18.0176 59.7777 18.4277 59.6729C18.8379 59.568 19.2959 59.5156 19.8018 59.5156H21.2715ZM25.6807 53.5V64H24.4092V53.5H25.6807ZM29.085 56.6035V64H27.8135V56.6035H29.085ZM27.7178 54.6416C27.7178 54.4365 27.7793 54.2633 27.9023 54.1221C28.0299 53.9808 28.2168 53.9102 28.4629 53.9102C28.7044 53.9102 28.889 53.9808 29.0166 54.1221C29.1488 54.2633 29.2148 54.4365 29.2148 54.6416C29.2148 54.8376 29.1488 55.0062 29.0166 55.1475C28.889 55.2842 28.7044 55.3525 28.4629 55.3525C28.2168 55.3525 28.0299 55.2842 27.9023 55.1475C27.7793 55.0062 27.7178 54.8376 27.7178 54.6416ZM35.4766 62.7354V58.9277C35.4766 58.6361 35.4173 58.3831 35.2988 58.1689C35.1849 57.9502 35.0117 57.7816 34.7793 57.6631C34.5469 57.5446 34.2598 57.4854 33.918 57.4854C33.599 57.4854 33.3187 57.54 33.0771 57.6494C32.8402 57.7588 32.6533 57.9023 32.5166 58.0801C32.3844 58.2578 32.3184 58.4492 32.3184 58.6543H31.0537C31.0537 58.39 31.1221 58.1279 31.2588 57.8682C31.3955 57.6084 31.5915 57.3737 31.8467 57.1641C32.1064 56.9499 32.4163 56.7812 32.7764 56.6582C33.141 56.5306 33.5465 56.4668 33.9932 56.4668C34.5309 56.4668 35.0049 56.5579 35.415 56.7402C35.8298 56.9225 36.1533 57.1982 36.3857 57.5674C36.6227 57.932 36.7412 58.39 36.7412 58.9414V62.3867C36.7412 62.6328 36.7617 62.8949 36.8027 63.1729C36.8483 63.4508 36.9144 63.6901 37.001 63.8906V64H35.6816C35.6178 63.8542 35.5677 63.6605 35.5312 63.4189C35.4948 63.1729 35.4766 62.945 35.4766 62.7354ZM35.6953 59.5156L35.709 60.4043H34.4307C34.0706 60.4043 33.7493 60.4339 33.4668 60.4932C33.1842 60.5479 32.9473 60.6322 32.7559 60.7461C32.5645 60.86 32.4186 61.0036 32.3184 61.1768C32.2181 61.3454 32.168 61.5436 32.168 61.7715C32.168 62.0039 32.2204 62.2158 32.3252 62.4072C32.43 62.5986 32.5872 62.7513 32.7969 62.8652C33.0111 62.9746 33.2731 63.0293 33.583 63.0293C33.9704 63.0293 34.3122 62.9473 34.6084 62.7832C34.9046 62.6191 35.1393 62.4186 35.3125 62.1816C35.4902 61.9447 35.5859 61.7145 35.5996 61.4912L36.1396 62.0996C36.1077 62.291 36.0212 62.5029 35.8799 62.7354C35.7386 62.9678 35.5495 63.1911 35.3125 63.4053C35.0801 63.6149 34.8021 63.7904 34.4785 63.9316C34.1595 64.0684 33.7995 64.1367 33.3984 64.1367C32.8971 64.1367 32.4574 64.0387 32.0791 63.8428C31.7054 63.6468 31.4137 63.3848 31.2041 63.0566C30.999 62.724 30.8965 62.3525 30.8965 61.9424C30.8965 61.5459 30.974 61.1973 31.1289 60.8965C31.2839 60.5911 31.5072 60.3382 31.7988 60.1377C32.0905 59.9326 32.4414 59.7777 32.8516 59.6729C33.2617 59.568 33.7197 59.5156 34.2256 59.5156H35.6953ZM41.6904 63.0977C41.9912 63.0977 42.2692 63.0361 42.5244 62.9131C42.7796 62.79 42.9893 62.6214 43.1533 62.4072C43.3174 62.1885 43.4108 61.9401 43.4336 61.6621H44.6367C44.6139 62.0996 44.4658 62.5075 44.1924 62.8857C43.9235 63.2594 43.5703 63.5625 43.1328 63.7949C42.6953 64.0228 42.2145 64.1367 41.6904 64.1367C41.1344 64.1367 40.6491 64.0387 40.2344 63.8428C39.8242 63.6468 39.4824 63.3779 39.209 63.0361C38.9401 62.6943 38.7373 62.3024 38.6006 61.8604C38.4684 61.4137 38.4023 60.9421 38.4023 60.4453V60.1582C38.4023 59.6615 38.4684 59.1921 38.6006 58.75C38.7373 58.3034 38.9401 57.9092 39.209 57.5674C39.4824 57.2256 39.8242 56.9567 40.2344 56.7607C40.6491 56.5648 41.1344 56.4668 41.6904 56.4668C42.2692 56.4668 42.7751 56.5853 43.208 56.8223C43.641 57.0547 43.9805 57.3737 44.2266 57.7793C44.4772 58.1803 44.6139 58.6361 44.6367 59.1465H43.4336C43.4108 58.8411 43.3242 58.5654 43.1738 58.3193C43.028 58.0732 42.8275 57.8773 42.5723 57.7314C42.3216 57.5811 42.0277 57.5059 41.6904 57.5059C41.3031 57.5059 40.9772 57.5833 40.7129 57.7383C40.4531 57.8887 40.2458 58.0938 40.0908 58.3535C39.9404 58.6087 39.8311 58.8936 39.7627 59.208C39.6989 59.5179 39.667 59.8346 39.667 60.1582V60.4453C39.667 60.7689 39.6989 61.0879 39.7627 61.4023C39.8265 61.7168 39.9336 62.0016 40.084 62.2568C40.2389 62.512 40.4463 62.7171 40.7061 62.8721C40.9704 63.0225 41.2985 63.0977 41.6904 63.0977ZM40.9932 64.0684H41.9023L41.8203 64.4307C42.0846 64.4762 42.3239 64.5856 42.5381 64.7588C42.7568 64.932 42.8662 65.2168 42.8662 65.6133C42.8662 65.8275 42.8206 66.0212 42.7295 66.1943C42.6429 66.3721 42.513 66.5225 42.3398 66.6455C42.1667 66.7731 41.9502 66.8711 41.6904 66.9395C41.4352 67.0078 41.1367 67.042 40.7949 67.042L40.7471 66.3105C40.9567 66.3105 41.1458 66.2878 41.3145 66.2422C41.4876 66.1966 41.6243 66.1237 41.7246 66.0234C41.8294 65.9232 41.8818 65.7933 41.8818 65.6338C41.8818 65.4834 41.8431 65.3649 41.7656 65.2783C41.6882 65.1917 41.5674 65.1257 41.4033 65.0801C41.2438 65.0391 41.0365 65.0094 40.7812 64.9912L40.9932 64.0684ZM45.7236 60.3838V60.2266C45.7236 59.6934 45.8011 59.1989 45.9561 58.7432C46.111 58.2829 46.3343 57.8841 46.626 57.5469C46.9176 57.2051 47.2708 56.9408 47.6855 56.7539C48.1003 56.5625 48.5651 56.4668 49.0801 56.4668C49.5996 56.4668 50.0667 56.5625 50.4814 56.7539C50.9007 56.9408 51.2562 57.2051 51.5479 57.5469C51.8441 57.8841 52.0697 58.2829 52.2246 58.7432C52.3796 59.1989 52.457 59.6934 52.457 60.2266V60.3838C52.457 60.917 52.3796 61.4115 52.2246 61.8672C52.0697 62.3229 51.8441 62.7217 51.5479 63.0635C51.2562 63.4007 50.903 63.665 50.4883 63.8564C50.0781 64.0433 49.6133 64.1367 49.0938 64.1367C48.5742 64.1367 48.1071 64.0433 47.6924 63.8564C47.2777 63.665 46.9222 63.4007 46.626 63.0635C46.3343 62.7217 46.111 62.3229 45.9561 61.8672C45.8011 61.4115 45.7236 60.917 45.7236 60.3838ZM46.9883 60.2266V60.3838C46.9883 60.7529 47.0316 61.1016 47.1182 61.4297C47.2048 61.7533 47.3346 62.0404 47.5078 62.291C47.6855 62.5417 47.9066 62.7399 48.1709 62.8857C48.4352 63.027 48.7428 63.0977 49.0938 63.0977C49.4401 63.0977 49.7432 63.027 50.0029 62.8857C50.2673 62.7399 50.486 62.5417 50.6592 62.291C50.8324 62.0404 50.9622 61.7533 51.0488 61.4297C51.14 61.1016 51.1855 60.7529 51.1855 60.3838V60.2266C51.1855 59.862 51.14 59.5179 51.0488 59.1943C50.9622 58.8662 50.8301 58.5768 50.6523 58.3262C50.4792 58.071 50.2604 57.8704 49.9961 57.7246C49.7363 57.5788 49.431 57.5059 49.0801 57.5059C48.7337 57.5059 48.4284 57.5788 48.1641 57.7246C47.9043 57.8704 47.6855 58.071 47.5078 58.3262C47.3346 58.5768 47.2048 58.8662 47.1182 59.1943C47.0316 59.5179 46.9883 59.862 46.9883 60.2266ZM50.5977 53.6367L51.4521 53.7119C51.4521 54.0446 51.3861 54.3363 51.2539 54.5869C51.1217 54.8376 50.944 55.0312 50.7207 55.168C50.502 55.3047 50.2536 55.373 49.9756 55.373C49.7432 55.373 49.5518 55.3411 49.4014 55.2773C49.251 55.209 49.1165 55.1338 48.998 55.0518C48.8796 54.9652 48.7542 54.89 48.6221 54.8262C48.4945 54.7578 48.335 54.7236 48.1436 54.7236C47.9521 54.7236 47.7904 54.7965 47.6582 54.9424C47.5306 55.0882 47.4668 55.2682 47.4668 55.4824L46.6123 55.4414C46.6123 55.1087 46.6761 54.8171 46.8037 54.5664C46.9359 54.3112 47.1136 54.113 47.3369 53.9717C47.5602 53.8258 47.8086 53.7529 48.082 53.7529C48.278 53.7529 48.4489 53.7871 48.5947 53.8555C48.7451 53.9193 48.8864 53.9945 49.0186 54.0811C49.1507 54.1631 49.2874 54.2383 49.4287 54.3066C49.57 54.3704 49.7318 54.4023 49.9141 54.4023C50.1055 54.4023 50.2673 54.3294 50.3994 54.1836C50.5316 54.0332 50.5977 53.8509 50.5977 53.6367ZM57.1123 64.1367C56.5973 64.1367 56.1302 64.0501 55.7109 63.877C55.2962 63.6992 54.9385 63.4508 54.6377 63.1318C54.3415 62.8128 54.1136 62.4346 53.9541 61.9971C53.7946 61.5596 53.7148 61.0811 53.7148 60.5615V60.2744C53.7148 59.6729 53.8037 59.1374 53.9814 58.668C54.1592 58.194 54.4007 57.793 54.7061 57.4648C55.0114 57.1367 55.3577 56.8883 55.7451 56.7197C56.1325 56.5511 56.5335 56.4668 56.9482 56.4668C57.4769 56.4668 57.9326 56.5579 58.3154 56.7402C58.7028 56.9225 59.0195 57.1777 59.2656 57.5059C59.5117 57.8294 59.694 58.2122 59.8125 58.6543C59.931 59.0918 59.9902 59.5703 59.9902 60.0898V60.6572H54.4668V59.625H58.7256V59.5293C58.7074 59.2012 58.639 58.8822 58.5205 58.5723C58.4066 58.2624 58.2243 58.0072 57.9736 57.8066C57.723 57.6061 57.3812 57.5059 56.9482 57.5059C56.6611 57.5059 56.3968 57.5674 56.1553 57.6904C55.9137 57.8089 55.7064 57.9867 55.5332 58.2236C55.36 58.4606 55.2256 58.75 55.1299 59.0918C55.0342 59.4336 54.9863 59.8278 54.9863 60.2744V60.5615C54.9863 60.9124 55.0342 61.2428 55.1299 61.5527C55.2301 61.8581 55.3737 62.127 55.5605 62.3594C55.752 62.5918 55.9821 62.7741 56.251 62.9062C56.5244 63.0384 56.8343 63.1045 57.1807 63.1045C57.6273 63.1045 58.0055 63.0133 58.3154 62.8311C58.6253 62.6488 58.8965 62.4049 59.1289 62.0996L59.8945 62.708C59.735 62.9495 59.5322 63.1797 59.2861 63.3984C59.04 63.6172 58.737 63.7949 58.377 63.9316C58.0215 64.0684 57.5999 64.1367 57.1123 64.1367ZM65.7734 62.0381C65.7734 61.8558 65.7324 61.6872 65.6504 61.5322C65.5729 61.3727 65.4111 61.2292 65.165 61.1016C64.9235 60.9694 64.5589 60.8555 64.0713 60.7598C63.6611 60.6732 63.2897 60.5706 62.957 60.4521C62.6289 60.3337 62.3486 60.1901 62.1162 60.0215C61.8883 59.8529 61.7129 59.6546 61.5898 59.4268C61.4668 59.1989 61.4053 58.9323 61.4053 58.627C61.4053 58.3353 61.4691 58.0596 61.5967 57.7998C61.7288 57.54 61.9134 57.3099 62.1504 57.1094C62.3919 56.9089 62.6813 56.7516 63.0186 56.6377C63.3558 56.5238 63.7318 56.4668 64.1465 56.4668C64.7389 56.4668 65.2448 56.5716 65.6641 56.7812C66.0833 56.9909 66.4046 57.2712 66.6279 57.6221C66.8512 57.9684 66.9629 58.3535 66.9629 58.7773H65.6982C65.6982 58.5723 65.6367 58.374 65.5137 58.1826C65.3952 57.9867 65.2197 57.8249 64.9873 57.6973C64.7594 57.5697 64.4792 57.5059 64.1465 57.5059C63.7956 57.5059 63.5107 57.5605 63.292 57.6699C63.0778 57.7747 62.9206 57.9092 62.8203 58.0732C62.7246 58.2373 62.6768 58.4105 62.6768 58.5928C62.6768 58.7295 62.6995 58.8525 62.7451 58.9619C62.7952 59.0667 62.8818 59.1647 63.0049 59.2559C63.1279 59.3424 63.3011 59.4245 63.5244 59.502C63.7477 59.5794 64.0326 59.6569 64.3789 59.7344C64.985 59.8711 65.484 60.0352 65.876 60.2266C66.2679 60.418 66.5596 60.6527 66.751 60.9307C66.9424 61.2087 67.0381 61.5459 67.0381 61.9424C67.0381 62.266 66.9697 62.5622 66.833 62.8311C66.7008 63.0999 66.5072 63.3324 66.252 63.5283C66.0013 63.7197 65.7005 63.8701 65.3496 63.9795C65.0033 64.0843 64.6136 64.1367 64.1807 64.1367C63.529 64.1367 62.9775 64.0205 62.5264 63.7881C62.0752 63.5557 61.7334 63.2549 61.501 62.8857C61.2686 62.5166 61.1523 62.127 61.1523 61.7168H62.4238C62.4421 62.0632 62.5423 62.3389 62.7246 62.5439C62.9069 62.7445 63.1302 62.888 63.3945 62.9746C63.6589 63.0566 63.9209 63.0977 64.1807 63.0977C64.527 63.0977 64.8164 63.0521 65.0488 62.9609C65.2858 62.8698 65.4658 62.7445 65.5889 62.585C65.7119 62.4255 65.7734 62.2432 65.7734 62.0381Z" fill="white"/>
<path d="M31.7773 39.6465H63.9996" stroke="white" stroke-width="3.75" stroke-linecap="round" stroke-linejoin="round"/>
<path d="M31.7773 23.1758H63.9996" stroke="white" stroke-width="3.75" stroke-linecap="round" stroke-linejoin="round"/>
<path d="M31.7773 6.70508H63.9996" stroke="white" stroke-width="3.75" stroke-linecap="round" stroke-linejoin="round"/>
<path d="M6 6.70588L9.22222 9.05882L18.8889 2" stroke="white" stroke-width="3.75" stroke-linecap="round" stroke-linejoin="round"/>
<path d="M6 23.1766L9.22222 25.5295L18.8889 18.4707" stroke="white" stroke-width="3.75" stroke-linecap="round" stroke-linejoin="round"/>
<path d="M6 39.6473L9.22222 42.0002L18.8889 34.9414" stroke="white" stroke-width="3.75" stroke-linecap="round" stroke-linejoin="round"/>
</svg>
