<?xml version="1.0" standalone="no"?>
<!DOCTYPE svg PUBLIC "-//W3C//DTD SVG 20010904//EN"
 "http://www.w3.org/TR/2001/REC-SVG-20010904/DTD/svg10.dtd">
<svg version="1.0" xmlns="http://www.w3.org/2000/svg"
 width="1280.000000pt" height="720.000000pt" viewBox="0 0 1280.000000 720.000000"
 preserveAspectRatio="xMidYMid meet">

<g transform="translate(0.000000,720.000000) scale(0.100000,-0.100000)"
fill="#000000" stroke="none">
<path d="M0 3600 l0 -3600 6400 0 6400 0 0 3600 0 3600 -6400 0 -6400 0 0
-3600z m1378 3266 c34 -18 69 -55 75 -81 3 -11 5 4 6 32 1 48 3 53 27 59 14 4
74 4 133 2 151 -8 210 -41 231 -131 6 -24 8 -10 9 52 l1 84 129 -5 c160 -7
208 -25 240 -92 26 -53 26 -89 0 -142 -32 -66 -77 -83 -238 -90 l-131 -6 -1
83 c-1 85 -2 88 -14 35 -3 -17 -22 -44 -40 -62 l-34 -32 45 -61 44 -61 60 0
60 0 0 -99 c0 -109 -1 -111 -66 -111 -45 0 -57 13 -172 183 -89 132 -94 137
-127 137 -35 0 -35 0 -35 45 l0 45 -60 0 -60 0 -1 43 c-1 40 -1 41 -9 13 -5
-17 -40 -60 -77 -98 l-67 -68 142 0 142 0 0 -50 0 -50 -210 0 c-197 0 -211 1
-230 20 -11 11 -20 28 -20 37 0 10 45 61 101 115 92 89 100 99 97 130 -3 30
-6 33 -38 36 -20 2 -51 -4 -70 -12 -31 -13 -38 -12 -72 5 -37 19 -38 20 -22
44 37 57 183 87 252 51z m6652 -36 c11 -11 20 -25 20 -30 0 -6 -20 -33 -45
-59 -25 -26 -45 -51 -45 -54 0 -3 20 -4 45 -2 25 2 45 -1 45 -6 0 -5 -25 -9
-55 -9 -30 0 -55 4 -55 8 0 5 20 29 45 54 25 25 45 55 45 67 0 28 -32 44 -65
31 -36 -14 -43 -12 -21 5 27 21 62 19 86 -5z m184 -3 c22 -22 20 -60 -4 -82
-17 -16 -18 -21 -7 -34 21 -24 29 -41 20 -41 -4 0 -16 14 -25 30 -14 24 -24
30 -52 30 -32 0 -35 -3 -39 -32 -2 -18 -5 9 -5 61 l-2 94 49 -5 c27 -3 56 -12
65 -21z m182 2 c8 -6 14 -26 14 -45 0 -40 -21 -54 -79 -54 -37 0 -40 -2 -44
-32 -2 -18 -5 9 -5 61 l-2 93 51 -5 c28 -3 57 -11 65 -18z m454 11 c0 -5 -22
-10 -50 -10 -49 0 -50 -1 -50 -30 0 -28 2 -30 43 -32 l42 -1 -42 -4 c-43 -4
-43 -4 -43 -45 l0 -40 50 5 c28 3 50 1 50 -4 0 -14 -107 -11 -112 4 -4 10 -3
111 1 155 1 15 111 17 111 2z m160 -1 c0 -5 -13 -9 -30 -9 l-30 0 -2 -82 -2
-83 -3 83 -4 82 -29 0 c-17 0 -30 4 -30 10 0 5 29 9 65 9 36 -1 65 -5 65 -10z
m407 -23 c29 -35 29 -78 0 -112 -19 -22 -34 -28 -80 -32 l-57 -4 0 84 c0 47 3
88 8 92 4 4 29 6 56 3 38 -3 55 -11 73 -31z m174 -52 c22 -48 37 -89 35 -92
-3 -2 -11 7 -17 22 -11 23 -18 26 -64 26 -46 0 -53 -3 -64 -26 -6 -15 -14 -24
-17 -22 -5 6 73 178 81 178 3 0 24 -39 46 -86z m179 75 c0 -5 -13 -9 -30 -9
l-30 0 0 -80 c0 -47 -4 -80 -10 -80 -6 0 -10 33 -10 80 l0 80 -30 0 c-16 0
-30 4 -30 9 0 5 32 9 70 9 39 0 70 -4 70 -9z m130 -74 c44 -93 44 -95 31 -95
-5 0 -12 11 -15 25 -6 23 -11 25 -61 25 -51 0 -56 -2 -66 -26 -5 -15 -12 -24
-15 -21 -6 6 71 177 80 177 3 0 23 -38 46 -85z m255 69 c41 -19 59 -61 44
-103 -13 -36 -61 -61 -118 -61 l-41 0 0 83 c0 46 3 87 7 90 12 13 74 7 108 -9z
m218 -15 c19 -24 14 -56 -12 -76 -14 -10 -14 -14 7 -42 12 -17 19 -31 14 -31
-4 0 -18 14 -30 30 -16 22 -31 30 -52 30 -27 0 -30 -3 -30 -30 0 -16 -4 -30
-10 -30 -15 0 -13 167 3 174 26 12 92 -3 110 -25z m237 -64 c-23 -51 -44 -84
-49 -79 -14 15 -73 155 -67 161 4 5 34 -55 56 -112 9 -24 30 -35 30 -15 0 16
60 143 66 138 2 -3 -14 -45 -36 -93z m190 85 c0 -5 -24 -10 -53 -10 l-54 0 5
-30 c4 -28 7 -30 50 -30 25 0 42 -3 38 -7 -4 -4 -25 -6 -46 -4 l-40 3 0 -41 0
-40 53 -4 52 -3 -62 -2 -63 -2 0 90 0 90 60 0 c33 0 60 -4 60 -10z m445 -4
c16 -12 13 -13 -32 -9 -45 5 -52 3 -71 -22 -25 -31 -27 -44 -11 -79 16 -34 57
-50 94 -36 15 6 30 8 33 6 7 -7 -44 -26 -69 -26 -31 0 -79 53 -79 87 0 68 83
117 135 79z m196 -15 c53 -54 25 -135 -52 -147 -28 -5 -41 -1 -67 21 -45 38
-45 92 -1 129 41 35 83 34 120 -3z m123 -38 c21 -35 39 -63 41 -63 2 0 20 28
41 63 20 34 38 64 40 66 2 2 3 -38 2 -90 l-2 -94 -5 73 -6 74 -30 -54 c-17
-29 -35 -53 -40 -52 -6 1 -23 25 -40 53 l-30 53 -6 -74 c-3 -40 -6 -70 -8 -65
-2 6 -3 133 -1 169 0 15 2 12 44 -59z m311 47 c20 -17 19 -59 -2 -82 -11 -12
-30 -18 -59 -18 -41 0 -43 -2 -47 -32 -2 -18 -5 6 -5 53 -1 47 1 89 6 93 10
11 89 1 107 -14z m155 -60 c37 -74 58 -139 24 -77 -13 24 -20 27 -68 27 -47 0
-54 -3 -65 -26 -6 -15 -14 -24 -16 -22 -6 5 73 178 80 178 3 0 23 -36 45 -80z
m218 -56 l-3 -46 -54 71 c-29 39 -57 71 -62 71 -4 0 -10 -33 -12 -72 l-3 -73
-2 88 c-1 48 2 87 6 87 5 0 33 -30 63 -67 l54 -68 5 75 c3 63 5 67 8 28 2 -27
2 -69 0 -94z m-3647 56 l54 -64 6 69 5 70 2 -90 2 -90 -35 40 c-19 22 -45 55
-57 72 -13 18 -26 33 -30 33 -4 0 -9 -33 -11 -72 l-3 -73 -2 88 c-1 49 2 87 7
85 5 -1 33 -32 62 -68z m1848 -17 c-2 -92 -6 -82 -11 25 -2 34 0 62 5 62 4 0
6 -39 6 -87z m453 45 c20 -24 45 -54 57 -68 l20 -25 1 68 c0 37 3 67 8 67 4 0
6 -38 4 -85 l-3 -86 -39 48 c-21 26 -48 59 -59 73 l-20 25 -1 -72 c0 -42 -4
-73 -10 -73 -6 0 -10 35 -10 85 0 47 4 85 8 85 5 0 25 -19 44 -42z m1432 -3
c15 -25 29 -45 31 -45 2 0 16 20 31 45 14 25 29 44 32 41 3 -3 0 -11 -6 -18
-26 -32 -52 -92 -53 -121 l-2 -32 -4 30 c-4 34 -20 69 -45 104 -17 22 -23 41
-14 41 2 0 16 -20 30 -45z m-3189 -55 c17 -7 14 -9 -13 -9 -20 -1 -31 3 -27 9
7 12 13 12 40 0z m1682 -1915 c8 -22 -6 -33 -17 -15 -13 20 -12 30 0 30 6 0
13 -7 17 -15z m642 -3691 c49 -41 37 -94 -21 -94 -33 0 -48 24 -48 79 0 34 3
41 19 41 11 0 33 -12 50 -26z m651 -158 c25 1 66 5 92 9 45 7 47 7 63 -25 40
-77 48 -144 22 -177 -24 -31 -141 0 -265 71 -12 7 -42 33 -67 58 -24 25 -46
45 -48 44 -1 0 6 7 17 17 16 15 28 16 80 10 34 -4 81 -7 106 -7z m-1675 -244
c51 -43 70 -106 45 -153 -23 -41 -106 -62 -152 -38 -28 15 -50 73 -43 112 15
78 99 122 150 79z m871 -262 c29 -80 8 -150 -44 -150 -64 1 -115 94 -78 142
15 21 75 48 95 45 8 -1 20 -18 27 -37z"/>
<path d="M1590 6715 l0 -65 40 0 c75 0 112 35 95 90 -8 26 -43 40 -96 40 l-39
0 0 -65z"/>
<path d="M1980 6715 l0 -65 48 0 c63 0 92 21 92 65 0 44 -29 65 -92 65 l-48 0
0 -65z"/>
<path d="M8110 6785 l0 -45 40 0 c31 0 43 5 55 24 26 40 6 66 -50 66 l-45 0 0
-45z"/>
<path d="M8292 6788 c3 -40 5 -43 35 -46 42 -4 73 13 73 41 0 34 -19 47 -68
47 l-43 0 3 -42z"/>
<path d="M9292 6758 l3 -73 44 1 c35 1 49 7 68 28 28 33 29 56 2 90 -17 22
-28 26 -70 26 l-50 0 3 -72z"/>
<path d="M9521 6786 c-11 -27 -21 -50 -21 -52 0 -2 20 -4 45 -4 25 0 45 3 45
8 -1 4 -11 27 -24 51 l-23 45 -22 -48z"/>
<path d="M9832 6785 c-13 -26 -21 -49 -18 -52 2 -2 22 -3 45 -1 l41 3 -23 48
-22 49 -23 -47z"/>
<path d="M10058 6755 c4 -83 5 -84 74 -65 56 16 76 70 42 118 -12 18 -25 22
-67 22 l-52 0 3 -75z"/>
<path d="M10270 6785 c0 -44 1 -45 31 -45 58 0 81 27 63 74 -4 11 -19 16 -50
16 l-44 0 0 -45z"/>
<path d="M11349 6828 c-57 -19 -61 -106 -7 -134 53 -27 108 6 108 66 0 56 -46
87 -101 68z"/>
<path d="M11770 6785 l0 -45 38 0 c52 0 80 29 64 65 -10 21 -18 25 -57 25
l-45 0 0 -45z"/>
<path d="M11966 6787 c-9 -23 -16 -46 -16 -50 0 -4 18 -7 40 -7 22 0 40 2 40
6 0 8 -40 94 -44 94 -2 0 -11 -19 -20 -43z"/>
</g>
</svg>
